<svg xmlns="http://www.w3.org/2000/svg" width="960" height="420" viewBox="0 0 960 420" role="img" aria-labelledby="figure-title figure-desc">
  <title id="figure-title">Calibration error by review cadence</title>
  <desc id="figure-desc">Weekly and milestone review reduce calibration error relative to continuous monitoring. An underpowered subgroup has no estimate.</desc>
  <defs>
    <pattern id="invalid" width="8" height="8" patternUnits="userSpaceOnUse" patternTransform="rotate(45)">
      <line x1="0" y1="0" x2="0" y2="8" stroke="#8B8E87" stroke-width="2"/>
    </pattern>
  </defs>

  <g font-family="Geist, DejaVu Sans, sans-serif" fill="#1F1F1B">
    <g stroke="#D6D8D0" stroke-width="1">
      <line x1="256" y1="48" x2="256" y2="342"/>
      <line x1="413.5" y1="48" x2="413.5" y2="342"/>
      <line x1="571" y1="48" x2="571" y2="342"/>
      <line x1="728.5" y1="48" x2="728.5" y2="342"/>
    </g>
    <line x1="256" y1="48" x2="256" y2="342" stroke="#1F1F1B" stroke-width="1.5"/>

    <g font-family="Geist Mono, DejaVu Sans Mono, monospace" font-size="18" fill="#585B54">
      <text x="256" y="378" text-anchor="middle">0.00</text>
      <text x="413.5" y="378" text-anchor="middle">0.05</text>
      <text x="571" y="378" text-anchor="middle">0.10</text>
      <text x="728.5" y="378" text-anchor="middle">0.15</text>
      <text x="886" y="378" text-anchor="middle">0.20</text>
    </g>

    <g font-size="21">
      <text x="232" y="91" text-anchor="end">Continuous</text>
      <text x="232" y="169" text-anchor="end">Weekly</text>
      <text x="232" y="247" text-anchor="end">Milestone</text>
      <text x="232" y="325" text-anchor="end">Underpowered subgroup</text>
    </g>

    <rect x="256" y="66" width="447.3" height="34" fill="#1F1F1B"/>
    <rect x="256" y="144" width="286.65" height="34" fill="#0016CC"/>
    <rect x="256" y="222" width="264.6" height="34" fill="#0016CC"/>
    <rect x="256" y="300" width="157.5" height="34" fill="url(#invalid)" stroke="#8B8E87" stroke-width="1"/>

    <g font-family="Geist Mono, DejaVu Sans Mono, monospace" font-size="19" font-weight="600">
      <text x="752" y="90">0.142</text>
      <text x="591" y="168" fill="#0016CC">0.091</text>
      <text x="569" y="246" fill="#0016CC">0.084</text>
      <text x="430" y="324" fill="#585B54">No estimate</text>
    </g>

    <g stroke="#585B54" stroke-width="2">
      <line x1="671.8" y1="83" x2="734.8" y2="83"/><line x1="671.8" y1="75" x2="671.8" y2="91"/><line x1="734.8" y1="75" x2="734.8" y2="91"/>
      <line x1="511.15" y1="161" x2="574.15" y2="161"/><line x1="511.15" y1="153" x2="511.15" y2="169"/><line x1="574.15" y1="153" x2="574.15" y2="169"/>
      <line x1="489.1" y1="239" x2="552.1" y2="239"/><line x1="489.1" y1="231" x2="489.1" y2="247"/><line x1="552.1" y1="231" x2="552.1" y2="247"/>
    </g>

    <text x="571" y="410" text-anchor="middle" font-size="18" fill="#585B54">Calibration error (lower is better)</text>
  </g>
</svg>
