<svg xmlns="http://www.w3.org/2000/svg" width="960" height="420" viewBox="0 0 960 420" role="img" aria-labelledby="figure-title figure-desc">
  <title id="figure-title">Calibration error by review cadence</title>
  <desc id="figure-desc">Weekly and milestone review reduce calibration error relative to continuous monitoring. An underpowered subgroup has no estimate.</desc>
  <defs>
    <pattern id="invalid" width="8" height="8" patternUnits="userSpaceOnUse" patternTransform="rotate(45)">
      <line x1="0" y1="0" x2="0" y2="8" stroke="#8B8E87" stroke-width="2"/>
    </pattern>
  </defs>

  <g font-family="Geist, DejaVu Sans, sans-serif" fill="#1F1F1B">
    <g stroke="#D6D8D0" stroke-width="1">
      <line x1="206" y1="48" x2="206" y2="342"/>
      <line x1="376" y1="48" x2="376" y2="342"/>
      <line x1="546" y1="48" x2="546" y2="342"/>
      <line x1="716" y1="48" x2="716" y2="342"/>
    </g>
    <line x1="206" y1="48" x2="206" y2="342" stroke="#1F1F1B" stroke-width="1.5"/>

    <g font-family="Geist Mono, DejaVu Sans Mono, monospace" font-size="18" fill="#585B54">
      <text x="206" y="378" text-anchor="middle">0.00</text>
      <text x="376" y="378" text-anchor="middle">0.05</text>
      <text x="546" y="378" text-anchor="middle">0.10</text>
      <text x="716" y="378" text-anchor="middle">0.15</text>
      <text x="886" y="378" text-anchor="middle">0.20</text>
    </g>

    <g font-size="21">
      <text x="32" y="91">Continuous</text>
      <text x="32" y="169">Weekly</text>
      <text x="32" y="247">Milestone</text>
      <text x="32" y="325">Underpowered subgroup</text>
    </g>

    <rect x="206" y="66" width="483" height="34" fill="#1F1F1B"/>
    <rect x="206" y="144" width="309" height="34" fill="#0016CC"/>
    <rect x="206" y="222" width="286" height="34" fill="#0016CC"/>
    <rect x="206" y="300" width="170" height="34" fill="url(#invalid)" stroke="#8B8E87" stroke-width="1"/>

    <g font-family="Geist Mono, DejaVu Sans Mono, monospace" font-size="19" font-weight="600">
      <text x="740" y="90">0.142</text>
      <text x="565" y="168" fill="#0016CC">0.091</text>
      <text x="542" y="246" fill="#0016CC">0.084</text>
      <text x="392" y="324" fill="#585B54">No estimate</text>
    </g>

    <g stroke="#585B54" stroke-width="2">
      <line x1="655" y1="83" x2="723" y2="83"/><line x1="655" y1="75" x2="655" y2="91"/><line x1="723" y1="75" x2="723" y2="91"/>
      <line x1="481" y1="161" x2="549" y2="161"/><line x1="481" y1="153" x2="481" y2="169"/><line x1="549" y1="153" x2="549" y2="169"/>
      <line x1="458" y1="239" x2="526" y2="239"/><line x1="458" y1="231" x2="458" y2="247"/><line x1="526" y1="231" x2="526" y2="247"/>
    </g>

    <text x="546" y="410" text-anchor="middle" font-size="18" fill="#585B54">Calibration error (lower is better)</text>
  </g>
</svg>
